<?xml version="1.0" encoding="utf-8"?>
<!-- Generator: Adobe Illustrator 16.0.3, SVG Export Plug-In . SVG Version: 6.00 Build 0)  -->
<!DOCTYPE svg PUBLIC "-//W3C//DTD SVG 1.1//EN" "http://www.w3.org/Graphics/SVG/1.1/DTD/svg11.dtd">
<svg version="1.1"
	 id="svg3357" xmlns:svg="http://www.w3.org/2000/svg" xmlns:rdf="http://www.w3.org/1999/02/22-rdf-syntax-ns#" xmlns:dc="http://purl.org/dc/elements/1.1/" xmlns:inkscape="http://www.inkscape.org/namespaces/inkscape" xmlns:sodipodi="http://sodipodi.sourceforge.net/DTD/sodipodi-0.dtd" xmlns:cc="http://creativecommons.org/ns#" sodipodi:docname="icon.svg" inkscape:version="0.48.5 r10040"
	 xmlns="http://www.w3.org/2000/svg" xmlns:xlink="http://www.w3.org/1999/xlink" x="0px" y="0px" width="24px" height="24px"
	 viewBox="0 0 24 24" enable-background="new 0 0 24 24" xml:space="preserve">
<path display="none" fill="#FDE6D2" d="M18.1-0.2H5.9c-3.3,0-6,2.7-6,6V18c0,3.3,2.7,6,6,6h12.2c3.301,0,6-2.7,6-6V5.8
	C24.1,2.5,21.4-0.2,18.1-0.2L18.1-0.2z"/>
<path display="none" fill="#CB6D20" d="M18.2,1.3c2.481,0,4.5,2.019,4.5,4.5V18c0,2.48-2.019,4.5-4.5,4.5H6
	c-2.481,0-4.5-2.02-4.5-4.5V5.8c0-2.481,2.019-4.5,4.5-4.5H18.2 M18.2-0.2H6c-3.3,0-6,2.7-6,6V18c0,3.3,2.7,6,6,6h12.2
	c3.3,0,6-2.7,6-6V5.8C24.2,2.5,21.5-0.2,18.2-0.2L18.2-0.2z"/>
<g display="none">
	<path display="inline" fill="#CB6D20" d="M9.667,5.845v4.833h4.683V5.845h2.836v12.576H14.35v-5.262H9.667v5.262H6.813V5.845H9.667
		z"/>
</g>
<path fill="#777777" d="M18.049,0H5.95C2.678,0,0,2.678,0,5.95v12.099C0,21.322,2.678,24,5.95,24h12.099
	C21.323,24,24,21.322,24,18.049V5.95C24,2.678,21.323,0,18.049,0L18.049,0z"/>
<g>
	<path fill="#FFFFFF" d="M4.966,10.689V6.587H3.563V5.621h4.002v0.966H6.16v4.102H4.966z"/>
	<path fill="#FFFFFF" d="M12.521,5.621l-1.641,2.951v2.118H9.688V8.636L8.019,5.621h1.359l0.932,1.811l0.897-1.811H12.521z"/>
	<path fill="#FFFFFF" d="M16.645,7.221c0,0.235-0.036,0.46-0.105,0.673c-0.071,0.213-0.172,0.392-0.304,0.535
		c-0.081,0.089-0.17,0.17-0.267,0.245c-0.097,0.075-0.203,0.139-0.32,0.19c-0.118,0.053-0.244,0.093-0.381,0.123
		c-0.139,0.029-0.291,0.044-0.463,0.044H14.18v1.657h-1.192V5.621h1.844c0.275,0,0.511,0.027,0.71,0.08
		c0.199,0.053,0.379,0.138,0.541,0.253c0.179,0.127,0.317,0.296,0.415,0.509C16.595,6.676,16.645,6.928,16.645,7.221z M15.418,7.251
		c0-0.143-0.031-0.266-0.096-0.369c-0.063-0.104-0.14-0.174-0.229-0.213c-0.112-0.053-0.221-0.082-0.324-0.09
		c-0.103-0.007-0.242-0.012-0.419-0.012h-0.17v1.519h0.083c0.113,0,0.22-0.002,0.319-0.003c0.1-0.002,0.188-0.01,0.263-0.024
		c0.063-0.011,0.131-0.033,0.202-0.066c0.071-0.032,0.126-0.069,0.164-0.11c0.08-0.084,0.137-0.172,0.165-0.262
		C15.404,7.528,15.418,7.405,15.418,7.251z"/>
	<path fill="#FFFFFF" d="M17.224,10.689V5.621h3.214v0.966h-2.026v0.889h1.867v0.966h-1.867v1.281h2.026v0.966H17.224z"/>
</g>
<rect x="3.563" y="13.36" fill="#FFFFFF" width="16.875" height="1.529"/>
<rect x="3.563" y="17.625" fill="#FFFFFF" width="16.875" height="1.5"/>
</svg>
